<svg width="50" height="44" viewBox="0 0 50 44" fill="none" xmlns="http://www.w3.org/2000/svg">
<path d="M49.9998 1.32703H1.92285V3.25007H49.9998V1.32703Z" fill="#E2E3E5"/>
<path d="M49.9998 14.7886H1.92285V16.7116H49.9998V14.7886Z" fill="#E2E3E5"/>
<path d="M49.9998 28.2501H1.92285V30.1732H49.9998V28.2501Z" fill="#E2E3E5"/>
<path d="M49.9998 41.7115H1.92285V43.6346H49.9998V41.7115Z" fill="#E2E3E5"/>
<path d="M49.0385 2.28852H0.961523C0.38457 2.28852 0 1.90386 0 1.327C0 0.750146 0.38457 0.365479 0.961523 0.365479H49.0385C49.6154 0.365479 50 0.750048 50 1.327C50 1.90395 49.6154 2.28852 49.0385 2.28852Z" fill="#B6B6B6"/>
<path d="M49.0385 15.7501H0.961523C0.38457 15.7501 0 15.3655 0 14.7886C0 14.2116 0.38457 13.827 0.961523 13.827H49.0385C49.6154 13.827 50 14.2116 50 14.7886C50 15.3655 49.6154 15.7501 49.0385 15.7501Z" fill="#B6B6B6"/>
<path d="M49.0385 29.2116H0.961523C0.38457 29.2116 0 28.8271 0 28.2501C0 27.6731 0.38457 27.2886 0.961523 27.2886H49.0385C49.6154 27.2886 50 27.6731 50 28.2501C50 28.8271 49.6154 29.2116 49.0385 29.2116Z" fill="#B6B6B6"/>
<path d="M49.0385 42.673H0.961523C0.38457 42.673 0 42.2885 0 41.7115C0 41.1347 0.38457 40.75 0.961523 40.75H49.0385C49.6154 40.75 50 41.1346 50 41.7115C50 42.2885 49.6154 42.673 49.0385 42.673Z" fill="#B6B6B6"/>
</svg>
