<svg width="80" height="80" viewBox="0 0 80 80" fill="none" xmlns="http://www.w3.org/2000/svg">
<path d="M64.1048 37.9913C63.5376 37.2904 62.5093 37.1821 61.8087 37.7494L61.2406 38.2091C60.5398 38.7765 60.4317 39.8046 60.999 40.5054C61.3218 40.904 61.7933 41.1108 62.269 41.1108C62.6298 41.1108 62.9931 40.9918 63.2953 40.7471L63.8633 40.2874C64.5639 39.7201 64.6722 38.6921 64.1048 37.9913Z" fill="#DFF3E4"/>
<path d="M59.4315 41.7746C58.8643 41.0736 57.836 40.9653 57.1354 41.5325L45.4623 50.8566C44.7615 51.4239 44.6534 52.4519 45.2207 53.1527C45.5432 53.5513 46.0148 53.7581 46.4906 53.7581C46.8513 53.7581 47.2146 53.6391 47.5168 53.3946L59.1899 44.0705C59.8906 43.5033 59.9988 42.4755 59.4315 41.7746Z" fill="#DFF3E4"/>
<path d="M70.2722 9.79443H9.72781C4.36391 9.79443 0 14.1583 0 19.5221V60.4779C0 65.8418 4.36391 70.2055 9.72781 70.2055H70.2722C75.6363 70.2055 80 65.8418 80 60.4779V19.5221C80 14.1583 75.6363 9.79443 70.2722 9.79443ZM65.6113 13.0596L39.978 33.7796L14.3447 13.0596H65.6113ZM66.8947 66.9402H13.0613V28.8096L38.9538 49.6674C39.5516 50.149 40.4044 50.149 41.0022 49.6674L66.8945 28.8096V66.9402H66.8947ZM76.7347 60.4777C76.7347 64.0412 73.8356 66.9401 70.2722 66.9401H70.1602V25.3979C70.1602 24.7693 69.7994 24.1966 69.2322 23.9252C68.6647 23.6537 67.9925 23.7322 67.5033 24.1265L39.978 46.2996L12.4527 24.1265C11.963 23.7322 11.2905 23.6537 10.7238 23.9252C10.1566 24.1966 9.79578 24.7693 9.79578 25.3979V66.9401H9.72766C6.16437 66.9402 3.26531 64.0412 3.26531 60.4779V19.5221C3.26531 16.143 5.87281 13.363 9.18109 13.0846L38.9517 37.149C39.2509 37.391 39.6145 37.5119 39.978 37.5119C40.3416 37.5119 40.705 37.391 41.0042 37.149L70.7786 13.0813C74.1059 13.3407 76.7347 16.1293 76.7347 19.5219V60.4777Z" fill="#DFF3E4"/>
</svg>
