<svg width="80" height="73" viewBox="0 0 80 73" fill="none" xmlns="http://www.w3.org/2000/svg">
<path fill-rule="evenodd" clip-rule="evenodd" d="M11.2947 20.0201C13.4505 17.6401 16.2156 15.8668 19.2619 15.2134C23.1986 14.3267 26.7135 15.6334 29.5255 17.9201C31.4938 19.6001 33.1342 21.7468 34.3058 23.9868C35.4774 26.2268 36.1336 28.6068 36.1804 30.6135C36.2273 32.6668 35.6649 34.3935 34.3058 35.4202C31.7282 37.3802 27.6977 36.5869 24.464 35.9802C24.0422 35.8869 23.5735 35.7935 23.4798 35.7935C21.324 35.3735 19.4025 35.7469 17.481 36.1202C15.9813 36.4002 14.4815 36.6802 12.7475 36.6802C10.2168 36.6335 8.57645 35.7935 7.686 34.3468C6.79555 32.9468 6.65495 30.9868 7.02988 28.7002C7.59227 25.4335 9.13884 22.4001 11.2947 20.0201ZM41.1482 46.9002C44.007 46.9936 45.9285 48.8603 46.7721 51.0069C47.0533 51.7069 47.2408 52.5003 47.2408 53.2469C47.2876 54.0403 47.147 54.787 46.9127 55.4403C46.3035 56.9336 44.9912 58.007 42.976 58.007C41.7106 58.007 40.4921 57.447 39.461 56.5603C38.4769 55.7203 37.6801 54.5536 37.2583 53.2003C37.024 52.5469 36.9772 51.8936 36.9772 51.2403C37.024 50.3069 37.2583 49.4203 37.727 48.7203C38.1957 47.9736 38.8987 47.3669 39.836 47.0869C40.2578 46.9469 40.6796 46.9002 41.1482 46.9002ZM50.6151 36.3535C52.3023 36.3535 53.802 37.0535 54.9268 38.2669C56.0516 39.4802 56.8951 41.2069 57.1763 43.1669C57.2701 43.5869 57.3169 44.0069 57.3169 44.4736C57.3169 45.8269 56.9889 47.2269 56.3327 48.3469C55.6766 49.5603 54.5987 50.4936 53.0521 50.7736C52.8178 50.7736 52.5366 50.8203 52.2554 50.8203C49.256 50.8203 47.2408 48.5336 46.3035 45.7336C46.0223 44.8002 45.8348 43.8202 45.7879 42.8402C45.7411 41.8602 45.8817 40.8802 46.116 39.9935C46.7253 37.9402 48.1781 36.4002 50.6151 36.3535ZM70.205 51.0069C71.0018 48.8603 72.9233 46.9936 75.7821 46.9002C76.2976 46.9002 76.7194 46.9469 77.1412 47.0869C78.0785 47.3669 78.7815 47.9736 79.2501 48.7203C79.7188 49.4203 79.9531 50.3069 80 51.2403C80 51.8936 79.9063 52.5469 79.7188 53.2003C79.297 54.5536 78.5003 55.7203 77.5161 56.5603C76.4851 57.447 75.2197 58.007 74.0012 58.007C71.9391 58.007 70.6737 56.9336 70.0644 55.4403C69.7832 54.787 69.6895 54.0403 69.6895 53.2469C69.7364 52.5003 69.877 51.7069 70.205 51.0069ZM62.0035 38.2669C63.1752 37.0535 64.6749 36.3535 66.362 36.3535C68.7522 36.4002 70.205 37.9402 70.8612 39.9935C71.0955 40.8802 71.1892 41.8602 71.1424 42.8402C71.1424 43.8202 70.9549 44.8002 70.6268 45.7336C69.7364 48.5336 67.6743 50.8203 64.6749 50.8203C64.3937 50.8203 64.1593 50.7736 63.8782 50.7736C62.3784 50.4936 61.3005 49.5603 60.5975 48.3469C59.9414 47.2269 59.6602 45.8269 59.6602 44.4736C59.6602 44.0069 59.7071 43.5869 59.754 43.1669C60.082 41.2069 60.8787 39.4802 62.0035 38.2669ZM48.2718 56.327C50.4277 53.947 53.1927 52.2203 56.239 51.5203C60.1289 50.6803 63.6907 51.9869 66.5026 54.2736C68.471 55.907 70.1113 58.1003 71.283 60.3403C72.4077 62.5803 73.1107 64.9137 73.1576 66.967C73.2045 69.0204 72.6421 70.747 71.283 71.7737C68.7053 73.6871 64.6749 72.9404 61.4411 72.3337C61.0193 72.2404 60.5507 72.147 60.4569 72.1004C58.3011 71.727 56.3796 72.1004 54.4581 72.4737C52.9584 72.7537 51.4587 73.0337 49.7247 72.9871C47.1939 72.9871 45.5536 72.147 44.6632 70.6537C43.7727 69.2537 43.6321 67.3404 44.007 65.007C44.5694 61.787 46.116 58.7536 48.2718 56.327ZM4.17106 10.5934C7.07674 10.6867 8.95138 12.5067 9.79496 14.6534C10.0762 15.4001 10.2636 16.1468 10.2636 16.8934C10.3105 17.6868 10.1699 18.4334 9.93556 19.0868C9.3263 20.6268 8.01406 21.7001 5.99883 21.6534C4.73345 21.6534 3.51494 21.1401 2.48389 20.2534C1.49971 19.4134 0.702988 18.2468 0.281195 16.8468C0.0937317 16.2401 0 15.5401 0 14.8867C0.0468658 14.0001 0.281195 13.1134 0.749854 12.3667C1.21851 11.6201 1.9215 11.0134 2.85882 10.7334C3.28061 10.6401 3.7024 10.5467 4.17106 10.5934ZM13.638 0C15.3251 0 16.8248 0.700004 17.9496 1.91334C19.1213 3.12668 19.918 4.85336 20.1992 6.81337C20.2929 7.23337 20.3398 7.70004 20.3398 8.16671C20.3398 9.47338 20.0117 10.8734 19.3556 11.9934C18.6995 13.2534 17.6216 14.1867 16.075 14.4201C15.8407 14.4667 15.5595 14.4667 15.2783 14.4667C12.2789 14.4667 10.2636 12.1801 9.3263 9.42672C9.04511 8.49338 8.85765 7.46671 8.81078 6.4867C8.76391 5.5067 8.90451 4.52669 9.13884 3.68669C9.7481 1.58668 11.2009 0.0466669 13.638 0ZM33.2279 14.6534C34.0246 12.5067 35.9461 10.6867 38.8049 10.5934C39.3204 10.5467 39.7422 10.6401 40.164 10.7334C41.1013 11.0134 41.8043 11.6201 42.273 12.3667C42.7417 13.1134 42.976 14.0001 43.0228 14.8867C43.0228 15.5401 42.9291 16.2401 42.7417 16.8468C42.3199 18.2468 41.5231 19.4134 40.539 20.2534C39.5079 21.1401 38.2425 21.6534 37.024 21.6534C34.9619 21.7001 33.6965 20.6268 33.0873 19.0868C32.8061 18.4334 32.7124 17.6868 32.7592 16.8934C32.7592 16.1468 32.8998 15.4001 33.2279 14.6534ZM25.0264 1.91334C26.198 0.700004 27.6977 0 29.3849 0C31.775 0.0466669 33.2279 1.58668 33.884 3.68669C34.1183 4.52669 34.2121 5.5067 34.2121 6.4867C34.1652 7.46671 33.9777 8.49338 33.6497 9.42672C32.7592 12.1801 30.6971 14.4667 27.6977 14.4667C27.4165 14.4667 27.1822 14.4667 26.9479 14.4201C25.4013 14.1867 24.3234 13.2534 23.6204 11.9934C22.9643 10.8734 22.6831 9.47338 22.6831 8.16671C22.6831 7.70004 22.7299 7.23337 22.7768 6.81337C23.1049 4.85336 23.9016 3.12668 25.0264 1.91334Z" fill="url(#paint0_linear_5_48)"/>
<defs>
<linearGradient id="paint0_linear_5_48" x1="34.1298" y1="-1.00516" x2="45.7573" y2="74.0376" gradientUnits="userSpaceOnUse">
<stop stop-color="#1E8AC6"/>
<stop offset="0.302" stop-color="#834FBC"/>
<stop offset="1" stop-color="#E813B1"/>
</linearGradient>
</defs>
</svg>
