<svg width="80" height="80" viewBox="0 0 80 80" fill="none" xmlns="http://www.w3.org/2000/svg">
<g clip-path="url(#clip0_34_110)">
<path d="M60.1979 19.05L27.2965 39.3141C25.4347 40.4635 24.5536 42.7336 25.1534 44.8333L28.7109 57.3333C29.0148 58.3991 29.9632 59.1075 31.0545 59.1075C31.1153 59.1075 31.1767 59.1053 31.2382 59.1008C32.4048 59.0161 33.3279 58.1472 33.4831 56.9891L34.4081 50.135C34.5328 49.2129 34.9772 48.355 35.6582 47.721L62.809 22.4829C63.6295 21.7221 63.7379 20.4763 63.0618 19.5852C62.3847 18.6933 61.1542 18.4627 60.1979 19.05ZM33.4873 45.3874C32.2673 46.523 31.4725 48.0575 31.2493 49.7085L30.8007 53.0332L28.2184 43.9594C28.0086 43.2244 28.3176 42.4296 28.9692 42.0274L53.072 27.1825L33.4873 45.3874Z" fill="#DFF3E4"/>
<path d="M78.6985 5.84103C77.6705 4.96978 76.2521 4.72993 74.9957 5.21525L2.35629 33.2374C0.9177 33.7923 -0.00730034 35.1468 4.34087e-05 36.6882C0.00754341 38.231 0.946137 39.5781 2.39317 40.1203L19.3604 46.4529L25.9789 67.7381C26.3424 68.9082 27.2597 69.8174 28.4325 70.1702C29.6047 70.5228 30.8707 70.2707 31.8169 69.4968L41.6825 61.4542C42.1563 61.0679 42.8329 61.0488 43.3275 61.4081L61.1218 74.327C61.7619 74.7923 62.5174 75.0318 63.2816 75.0318C63.7293 75.0318 64.1799 74.9496 64.6124 74.7824C65.7821 74.3301 66.6327 73.3274 66.8874 72.1007L79.9232 9.39618C80.1969 8.07587 79.7277 6.71368 78.6985 5.84103ZM76.8025 8.74853L63.7669 71.4529C63.7197 71.6795 63.5566 71.7737 63.4635 71.8098C63.3697 71.846 63.1846 71.8862 62.9952 71.7484L45.2004 58.8288C44.4049 58.2513 43.4696 57.9646 42.536 57.9646C41.5175 57.9646 40.5005 58.306 39.6693 58.9832L29.8014 67.0278C29.6258 67.1715 29.4435 67.1459 29.3507 67.1179C29.2572 67.0898 29.0905 67.0101 29.0227 66.792L22.1719 44.7598C22.0255 44.289 21.6693 43.9124 21.2074 43.7399L3.50973 37.1348C3.24473 37.0356 3.18832 36.8288 3.18754 36.6727C3.18676 36.5181 3.24114 36.3123 3.50364 36.211L76.1432 8.189C76.1435 8.18884 76.144 8.18868 76.1444 8.18853C76.3804 8.09743 76.5549 8.20212 76.638 8.27243C76.7215 8.34353 76.8543 8.49978 76.8025 8.74853Z" fill="#DFF3E4"/>
<path d="M66.7939 39.3972C65.9336 39.2104 65.0851 39.7565 64.8984 40.6166L64.6562 41.7322C64.4695 42.5924 65.0155 43.441 65.8756 43.6277C65.9895 43.6524 66.1031 43.6643 66.2153 43.6643C66.9489 43.6643 67.609 43.1546 67.7712 42.4085L68.0134 41.2929C68.2 40.4327 67.6539 39.5841 66.7939 39.3972Z" fill="#DFF3E4"/>
<path d="M65.2002 46.7378C64.339 46.5511 63.4912 47.097 63.3046 47.9572L59.6391 64.8401C59.4524 65.7003 59.9984 66.5489 60.8584 66.7356C60.9724 66.7603 61.086 66.7722 61.1981 66.7722C61.9318 66.7722 62.5918 66.2625 62.754 65.5164L66.4195 48.6332C66.6062 47.7731 66.0602 46.9245 65.2002 46.7378Z" fill="#DFF3E4"/>
</g>
<defs>
<clipPath id="clip0_34_110">
<rect width="80" height="80" fill="white"/>
</clipPath>
</defs>
</svg>
