<svg width="80" height="80" viewBox="0 0 80 80" fill="none" xmlns="http://www.w3.org/2000/svg">
<g clip-path="url(#clip0_34_87)">
<path fill-rule="evenodd" clip-rule="evenodd" d="M68.4928 21.6086C67.8904 22.0792 67.5517 22.8086 67.5893 23.5709C67.6128 24.2533 67.6317 24.9356 67.6317 25.6274C67.6317 47.7262 52.0693 70.5921 26.0269 70.5921C20.9351 70.5921 15.9187 69.5803 11.2034 67.6274C16.8881 66.6862 22.3046 64.1921 26.8269 60.385C27.5751 59.7498 27.8528 58.7239 27.5281 57.8015C27.2034 56.8792 26.3375 56.2533 25.354 56.2298C20.9634 56.1403 16.9869 53.618 14.6716 49.6792C16.2575 49.6321 17.9658 49.3827 19.2458 49.0109C20.2811 48.7098 20.9775 47.745 20.9446 46.6721C20.9069 45.5945 20.1446 44.6815 19.0904 44.4509C14.4175 43.4392 10.9775 39.585 9.81515 34.2909C11.1516 34.5592 12.4128 34.6438 13.1093 34.6627C14.1351 34.7756 15.0811 34.0603 15.4199 33.0768C15.754 32.098 15.4104 31.0109 14.5681 30.4039C11.3164 28.0603 7.83398 23.6886 7.83398 18.4697C7.83398 17.1851 7.99398 15.9145 8.29986 14.6862C16.4316 23.7356 27.5281 29.1991 39.2928 29.8345C40.0834 29.8768 40.7375 29.5662 41.2128 29.0109C41.6881 28.4556 41.8764 27.7027 41.7258 26.9874C41.4904 25.9192 41.3728 24.8133 41.3728 23.6933C41.3728 15.8203 47.2504 9.41563 54.474 9.41563C58.1069 9.41563 61.4858 10.9921 63.9799 13.8627C64.5351 14.5027 65.4104 14.7992 66.2387 14.6203C67.434 14.3662 68.6104 14.0462 69.7681 13.6556C69.081 14.3521 68.3234 14.9733 67.4999 15.505C66.5728 16.1027 66.1869 17.2556 66.5634 18.2909C66.9399 19.3262 68.0034 19.9521 69.0763 19.8156C69.6881 19.7356 70.2952 19.6415 70.8975 19.5239C70.1351 20.2627 69.3352 20.9592 68.4928 21.6086ZM79.3964 13.2886C78.6999 12.5121 77.5799 12.2957 76.6293 12.738C76.4599 12.818 76.2904 12.898 76.1164 12.978C76.8269 11.7168 77.4058 10.3662 77.8246 8.94976C78.1069 8.00859 77.7728 6.99209 76.9869 6.39918C76.1964 5.81093 75.1328 5.76388 74.2999 6.29563C71.8717 7.8533 69.2599 8.9968 66.5304 9.7168C63.2693 6.5168 58.9493 4.70972 54.474 4.70972C44.6575 4.70972 36.6669 13.2274 36.6669 23.6933C36.6669 24.0886 36.6764 24.4839 36.6999 24.8745C26.0834 23.5003 16.2716 17.7074 9.44344 8.68622C8.96344 8.05092 8.18698 7.72622 7.39169 7.76388C6.59169 7.82505 5.8764 8.28622 5.49519 8.99209C3.94698 11.8627 3.12815 15.1427 3.12815 18.4698C3.12815 22.0792 4.32344 25.345 6.05523 28.0839C5.24582 28.4603 4.68107 29.2745 4.68107 30.225V30.4415C4.68107 36.2674 6.7564 41.3544 10.2434 44.7944C9.86698 44.9168 9.52344 45.138 9.24582 45.4344C8.97066 45.7345 8.77792 46.1007 8.68638 46.4974C8.59483 46.8941 8.6076 47.3077 8.72344 47.698C10.4223 53.4062 14.4646 57.7874 19.4905 59.7733C14.3705 62.6721 8.29519 63.8203 2.63873 63.138C1.53286 62.9733 0.53519 63.6321 0.154023 64.6392C-0.231852 65.6509 0.125815 66.7992 1.0199 67.4109C8.50698 72.5686 17.1564 75.298 26.027 75.298C55.0152 75.298 72.3376 50.0415 72.3376 25.6274C72.3376 25.2698 72.3329 24.9168 72.3234 24.5639C75.1799 22.1827 77.6364 19.3403 79.6458 16.1027C80.1964 15.2133 80.0975 14.0651 79.3964 13.2886Z" fill="#DFF3E4"/>
</g>
<defs>
<clipPath id="clip0_34_87">
<rect width="80" height="80" fill="white"/>
</clipPath>
</defs>
</svg>
